<?xml version="1.0" encoding="UTF-8"?>
<svg xmlns="http://www.w3.org/2000/svg" xmlns:xlink="http://www.w3.org/1999/xlink" width="230.88pt" height="307.21pt" viewBox="0 0 230.88 307.21" version="1.1">
<defs>
<clipPath id="clip1">
  <path d="M 0 0 L 230.878906 0 L 230.878906 307.210938 L 0 307.210938 Z M 0 0 "/>
</clipPath>
</defs>
<g id="surface1">
<g clip-path="url(#clip1)" clip-rule="nonzero">
<path style=" stroke:none;fill-rule:nonzero;fill:rgb(0%,63.09967%,89.399719%);fill-opacity:1;" d="M 163.28125 201.078125 L 163.363281 201.773438 Z M 123.15625 241.203125 L 159.054688 236.976563 L 162.515625 207.554688 C 156.492188 204.449219 150.253906 201.5625 140.125 201.5625 C 115.082031 201.5625 113.683594 215.066406 89.355469 215.066406 C 67.523438 215.066406 63.964844 201.5625 39.214844 201.5625 C 32.632813 201.5625 21.921875 205.90625 19.691406 206.839844 C 27.257813 253.335938 67.601563 288.828125 116.234375 288.828125 C 124.007813 288.828125 131.566406 287.921875 138.816406 286.207031 L 136.621094 267.582031 L 114.402344 264.964844 L 136.621094 262.347656 L 138.894531 243.054688 Z M 164.140625 208.394531 L 167.507813 236.976563 L 200.421875 240.851563 C 206.335938 230.875 210.53125 219.761719 212.597656 207.914063 C 209.855469 209.816406 201.136719 215.066406 188.472656 215.066406 C 177.191406 215.066406 170.597656 211.742188 164.140625 208.394531 Z M 199.96875 241.605469 L 167.507813 245.429688 L 163.851563 276.476563 C 178.703125 268.183594 191.171875 256.132813 199.96875 241.605469 Z M 162.777344 277.066406 L 161.390625 265.28125 L 141.855469 267.582031 L 139.683594 286 C 147.832031 283.992188 155.578125 280.96875 162.777344 277.066406 Z M 161.316406 264.640625 L 159.054688 245.429688 L 139.59375 243.136719 L 141.855469 262.347656 Z M 114.761719 119.867188 L 92.542969 122.484375 L 90.273438 141.777344 L 106.011719 143.632813 L 70.113281 147.859375 L 66.582031 177.832031 C 72.867188 180.996094 79.09375 183.976563 89.355469 183.976563 C 113.683594 183.976563 115.082031 170.476563 140.125 170.476563 C 162.03125 170.476563 165.726563 183.976563 188.472656 183.976563 C 201.824219 183.976563 210.789063 178.144531 212.988281 176.550781 C 206 129.382813 165.34375 93.195313 116.234375 93.195313 C 107.191406 93.195313 98.4375 94.421875 90.125 96.71875 L 92.542969 117.253906 Z M 89.574219 141.695313 L 87.3125 122.484375 L 67.851563 120.191406 L 70.113281 139.402344 Z M 67.773438 119.554688 L 87.3125 117.253906 L 89.714844 96.832031 C 81.40625 99.167969 73.542969 102.574219 66.285156 106.890625 Z M 30.980469 143.015625 L 61.660156 139.402344 L 65.425781 107.410156 C 51.121094 116.121094 39.226563 128.402344 30.980469 143.015625 Z M 140.125 195.347656 C 150.640625 195.347656 156.960938 198.457031 163.207031 201.695313 C 170.074219 205.253906 176.738281 208.847656 188.472656 208.847656 C 203.9375 208.847656 213.515625 201.019531 213.515625 201.019531 L 213.515625 201.308594 C 213.871094 197.925781 214.050781 194.488281 214.050781 191.011719 C 214.050781 187.535156 213.871094 184.097656 213.515625 180.714844 L 213.515625 182.367188 C 213.515625 182.367188 203.9375 190.195313 188.472656 190.195313 C 165.726563 190.195313 162.03125 176.695313 140.125 176.695313 C 115.082031 176.695313 113.683594 190.195313 89.355469 190.195313 C 78.71875 190.195313 72.417969 186.988281 65.890625 183.703125 C 59.023438 180.242188 51.90625 176.695313 39.214844 176.695313 C 31.835938 176.695313 19.277344 182.148438 19.277344 182.148438 L 18.789063 182.40625 C 18.609375 184.496094 18.492188 186.609375 18.441406 188.738281 L 19.347656 188.324219 C 19.347656 188.324219 31.835938 182.910156 39.214844 182.910156 C 63.964844 182.910156 67.523438 196.414063 89.355469 196.414063 C 113.683594 196.414063 115.082031 182.910156 140.125 182.910156 C 162.03125 182.910156 165.726563 196.414063 188.472656 196.414063 C 203.9375 196.414063 213.515625 188.585938 213.515625 188.585938 L 213.515625 194.804688 C 213.515625 194.804688 203.9375 202.628906 188.472656 202.628906 C 165.726563 202.628906 162.03125 189.128906 140.125 189.128906 C 115.082031 189.128906 113.683594 202.628906 89.355469 202.628906 C 67.523438 202.628906 63.964844 189.128906 39.214844 189.128906 C 31.835938 189.128906 19.277344 194.582031 19.277344 194.582031 L 18.496094 194.96875 C 18.574219 196.980469 18.714844 198.972656 18.914063 200.953125 L 19.277344 200.800781 C 19.277344 200.800781 31.835938 195.347656 39.214844 195.347656 C 63.964844 195.347656 67.523438 208.847656 89.355469 208.847656 C 113.683594 208.847656 115.082031 195.347656 140.125 195.347656 Z M 19.34375 175.902344 C 21.589844 174.953125 32.527344 170.476563 39.214844 170.476563 C 51.425781 170.476563 58.476563 173.761719 65.109375 177.09375 L 61.660156 147.859375 L 30.339844 144.171875 C 25.058594 153.839844 21.359375 164.496094 19.59375 175.796875 L 19.277344 175.929688 Z M 12.679688 191.277344 C 12.679688 134.234375 58.921875 87.992188 115.96875 87.992188 C 173.011719 87.992188 219.253906 134.234375 219.253906 191.277344 C 219.253906 248.320313 173.011719 294.5625 115.96875 294.5625 C 58.921875 294.5625 12.679688 248.320313 12.679688 191.277344 Z M 212.035156 37.363281 L 204.925781 37.363281 C 201.765625 37.363281 199.855469 36.859375 199.855469 39.8125 C 199.855469 45.085938 216.398438 41.332031 216.398438 55.140625 C 216.398438 63.960938 208.488281 68.132813 199.855469 68.132813 C 193.449219 68.132813 190.511719 67.222656 190.511719 67.222656 L 190.511719 57.675781 C 190.511719 57.675781 193.667969 58.382813 199.550781 58.382813 C 205.429688 58.382813 205.75 56.660156 205.75 55.445313 C 205.75 51.171875 189.496094 53.011719 189.496094 40.523438 C 189.496094 32.613281 195.898438 28.238281 199.957031 28.238281 L 212.035156 28.238281 Z M 70.964844 28.785156 L 80.476563 28.785156 L 80.476563 67.628906 L 70.964844 67.628906 L 70.964844 52.175781 L 59.832031 52.175781 L 59.832031 67.628906 L 50.316406 67.628906 L 50.316406 28.785156 L 59.832031 28.785156 L 59.832031 43.316406 L 70.964844 43.316406 Z M 109.6875 28.785156 L 119.199219 28.785156 L 119.199219 58.769531 L 129.851563 58.769531 L 129.851563 67.628906 L 109.6875 67.628906 Z M 135.160156 28.785156 L 144.671875 28.785156 L 144.671875 67.628906 L 135.160156 67.628906 Z M 90.324219 28.785156 L 99.839844 28.785156 L 99.839844 67.628906 L 90.324219 67.628906 Z M 24.417969 37.964844 L 24.417969 49.597656 L 28.820313 49.597656 C 32.03125 49.597656 34.636719 46.996094 34.636719 43.78125 C 34.636719 40.570313 32.03125 37.964844 28.820313 37.964844 Z M 24.417969 59.105469 L 24.417969 67.628906 L 14.90625 67.628906 L 14.90625 29.125 L 14.921875 28.824219 L 28.992188 28.824219 C 29.335938 28.804688 29.679688 28.789063 30.027344 28.789063 C 38.492188 28.789063 45.355469 35.316406 45.355469 43.78125 C 45.355469 52.25 38.492188 59.113281 30.027344 59.113281 L 29.539063 59.105469 Z M 164.914063 37.964844 L 164.914063 49.597656 L 169.316406 49.597656 C 172.527344 49.597656 175.132813 46.996094 175.132813 43.78125 C 175.132813 40.570313 172.527344 37.964844 169.316406 37.964844 Z M 164.914063 59.105469 L 164.914063 67.628906 L 155.402344 67.628906 L 155.402344 29.125 L 155.417969 28.824219 L 169.492188 28.824219 C 169.832031 28.804688 170.175781 28.789063 170.523438 28.789063 C 178.988281 28.789063 185.851563 35.316406 185.851563 43.78125 C 185.851563 52.25 178.988281 59.113281 170.523438 59.113281 L 170.039063 59.105469 Z M 115.46875 307.210938 C 52.679688 307.210938 1.601563 257.085938 0.0664063 194.664063 L 0 0 L 230.871094 0 L 230.875 194.417969 C 229.335938 257.082031 178.257813 307.210938 115.46875 307.210938 Z M 5.765625 194.417969 C 7.339844 253.808594 55.964844 301.480469 115.730469 301.480469 C 175.492188 301.480469 224.121094 253.808594 225.660156 194.417969 L 225.703125 5.46875 L 5.765625 5.46875 L 5.765625 194.417969 "/>
</g>
</g>
</svg>
